<?xml version="1.0" encoding="UTF-8" standalone="no"?>
<!-- Created with Inkscape (http://www.inkscape.org/) -->

<svg
   xmlns:dc="http://purl.org/dc/elements/1.1/"
   xmlns:cc="http://creativecommons.org/ns#"
   xmlns:rdf="http://www.w3.org/1999/02/22-rdf-syntax-ns#"
   xmlns:svg="http://www.w3.org/2000/svg"
   xmlns="http://www.w3.org/2000/svg"
   version="1.1"
   width="580"
   height="400"
   id="svg4638">
  <defs
     id="defs4640">
    <filter
       color-interpolation-filters="sRGB"
       id="filter4976">
      <feGaussianBlur
         stdDeviation="2.4166544"
         id="feGaussianBlur4978" />
    </filter>
  </defs>
  <metadata
     id="metadata4643">
    <rdf:RDF>
      <cc:Work
         rdf:about="">
        <dc:format>image/svg+xml</dc:format>
        <dc:type
           rdf:resource="http://purl.org/dc/dcmitype/StillImage" />
        <dc:title></dc:title>
      </cc:Work>
    </rdf:RDF>
  </metadata>
  <g
     transform="translate(0,-652.36218)"
     id="layer1">
    <g
       transform="matrix(0.47503784,0,0,0.47503784,354.43698,901.91833)"
       id="g5156">
      <g
         transform="translate(-2.8638611e-5,0)"
         id="g5059">
        <g
           transform="translate(-768.14349,-435.97222)"
           id="g5293">
          <rect
             width="241.66544"
             height="241.66544"
             ry="38.526375"
             x="59.396248"
             y="207.44138"
             id="rect5295"
             style="fill:#333333;fill-opacity:1;stroke:none;filter:url(#filter4976)" />
          <rect
             width="241.66544"
             height="241.66544"
             ry="38.526375"
             x="59.396248"
             y="203.44138"
             id="rect5297"
             style="fill:#aa0000;fill-opacity:1;stroke:none" />
        </g>
        <g
           transform="translate(-768.14349,-154.95092)"
           id="g5022">
          <rect
             width="241.66544"
             height="241.66544"
             ry="38.526375"
             x="59.396248"
             y="207.44138"
             id="rect4970"
             style="fill:#333333;fill-opacity:1;stroke:none;filter:url(#filter4976)" />
          <rect
             width="241.66544"
             height="241.66544"
             ry="38.526375"
             x="59.396248"
             y="203.44138"
             id="rect4839"
             style="fill:#aa0000;fill-opacity:1;stroke:none" />
        </g>
        <path
           d="m -640.69422,139.7934 c -21.82583,0 -39.51727,17.69148 -39.51727,39.51729 0,21.82581 17.69144,39.5173 39.51727,39.5173 13.78079,0 25.91596,-7.06024 32.98833,-17.75416 l 39.58272,0 c 7.07236,10.69392 19.20754,17.75416 32.98833,17.75416 21.82582,0 39.51727,-17.69149 39.51727,-39.5173 0,-21.82581 -17.69145,-39.51729 -39.51727,-39.51729 l -105.55938,0 z"
           id="path4853"
           style="fill:#ffffff;fill-opacity:1;stroke:none" />
        <g
           transform="matrix(0.63133577,0,0,0.63133577,-1081.8449,-924.62752)"
           id="g4896"
           style="fill:#aa0000">
          <rect
             width="20.265955"
             height="55.731377"
             ry="4.728723"
             x="685.92719"
             y="1719.5667"
             id="rect4862"
             style="fill:#aa0000;fill-opacity:1;stroke:none" />
          <rect
             width="20.265955"
             height="55.731377"
             ry="4.728723"
             x="1737.2993"
             y="-723.92584"
             transform="matrix(0,1,-1,0,0,0)"
             id="rect4864"
             style="fill:#aa0000;fill-opacity:1;stroke:none" />
        </g>
        <g
           transform="matrix(0.52362427,0,0,0.52362427,-994.96447,-649.33142)"
           id="g4870"
           style="fill:#aa0000">
          <rect
             width="5.5126953"
             height="26.74678"
             ry="2.269424"
             x="1450.0706"
             y="973.57367"
             transform="matrix(0.8660254,0.5,-0.5,0.8660254,0,0)"
             id="rect4866"
             style="fill:#aa0000;fill-opacity:1;stroke:none" />
          <rect
             width="5.5126953"
             height="26.74678"
             ry="2.269424"
             x="1471.9962"
             y="960.91486"
             transform="matrix(0.8660254,0.5,-0.5,0.8660254,0,0)"
             id="rect4868"
             style="fill:#aa0000;fill-opacity:1;stroke:none" />
        </g>
        <g
           transform="matrix(0.52362427,0,0,0.52362427,-993.29227,-651.27692)"
           id="g4888"
           style="fill:#aa0000">
          <g
             id="g4878"
             style="fill:#aa0000">
            <path
               d="m 890.35098,1616.9379 a 11.652925,11.652925 0 1 1 -23.30585,0 11.652925,11.652925 0 1 1 23.30585,0 z"
               id="path4874"
               style="fill:#aa0000;fill-opacity:1;stroke:none" />
            <path
               d="m 890.35098,1616.9379 a 11.652925,11.652925 0 1 1 -23.30585,0 11.652925,11.652925 0 1 1 23.30585,0 z"
               transform="translate(0,-62.14893)"
               id="path4876"
               style="fill:#aa0000;fill-opacity:1;stroke:none" />
          </g>
          <g
             transform="matrix(0,1,-1,0,2464.5615,707.16534)"
             id="g4882"
             style="fill:#aa0000">
            <path
               d="m 890.35098,1616.9379 a 11.652925,11.652925 0 1 1 -23.30585,0 11.652925,11.652925 0 1 1 23.30585,0 z"
               id="path4884"
               style="fill:#aa0000;fill-opacity:1;stroke:none" />
            <path
               d="m 890.35098,1616.9379 a 11.652925,11.652925 0 1 1 -23.30585,0 11.652925,11.652925 0 1 1 23.30585,0 z"
               transform="translate(0,-62.14893)"
               id="path4886"
               style="fill:#aa0000;fill-opacity:1;stroke:none" />
          </g>
        </g>
        <path
           d="m -572.14853,96.889977 -5.02352,3.763603 c 0,0 2.70655,3.68982 3.97627,7.98527 0.63486,2.1477 0.85405,4.34436 0.42544,6.20165 -0.4286,1.8573 -1.37363,3.4865 -3.829,5.03988 -13.74429,8.69541 -11.40519,23.95581 -11.40519,23.95581 l 6.18531,-1.07997 c 0,0 -2.17688,-10.762 8.59071,-17.57414 3.6726,-2.32348 5.82711,-5.60943 6.5944,-8.93434 0.76728,-3.32491 0.29461,-6.56908 -0.53999,-9.39251 -1.66921,-5.64687 -4.97443,-9.965253 -4.97443,-9.965253 z"
           id="path4916"
           style="font-size:medium;font-style:normal;font-variant:normal;font-weight:normal;font-stretch:normal;text-indent:0;text-align:start;text-decoration:none;line-height:normal;letter-spacing:normal;word-spacing:normal;text-transform:none;direction:ltr;block-progression:tb;writing-mode:lr-tb;text-anchor:start;color:#000000;fill:#ffffff;fill-opacity:1;stroke:none;stroke-width:12;marker:none;visibility:visible;display:inline;overflow:visible;enable-background:accumulate;font-family:Bitstream Vera Sans;-inkscape-font-specification:Bitstream Vera Sans" />
        <g
           transform="matrix(0.6543828,0,0,0.6543828,-448.39675,-325.72202)"
           id="g5284"
           style="fill:#ffffff">
          <rect
             width="41.207443"
             height="103.35637"
             x="-334.38828"
             y="281.49667"
             id="rect5248"
             style="fill:#ffffff;fill-opacity:1;stroke:none" />
          <rect
             width="24.994678"
             height="103.35637"
             x="262.10635"
             y="281.49667"
             transform="scale(-1,1)"
             id="rect5250"
             style="fill:#ffffff;fill-opacity:1;stroke:none" />
          <path
             d="m -219.84905,197.9874 -37.65625,67.875 -11.78125,21 0,92.5937 11.78125,21 37.65625,67.9063 -0.125,-135.1876 0.125,-135.1874 z"
             id="path5252"
             style="fill:#ffffff;fill-opacity:1;stroke:none" />
          <rect
             width="11.855937"
             height="270.65292"
             x="-229.02235"
             y="197.84846"
             id="rect5254"
             style="fill:#ffffff;fill-opacity:1;stroke:none" />
          <path
             d="m -200.57215,287.85105 c -0.72777,0 -1.45207,0.0598 -2.16494,0.16101 13.56044,1.8891 24.21877,21.3814 24.21877,45.16284 0,23.78166 -10.65821,43.29199 -24.21877,45.18076 0.7128,0.0989 1.43725,0.14309 2.16494,0.14309 14.57149,0 26.38372,-20.29138 26.38372,-45.3232 0,-25.0316 -11.81223,-45.32308 -26.38372,-45.32308 z"
             id="path5259"
             style="fill:#ffffff;fill-opacity:1;stroke:none" />
          <path
             d="m -178.23302,266.57363 c -1.06943,0 -2.13375,0.088 -3.18128,0.23663 19.92643,2.77595 35.58835,31.41898 35.58835,66.36464 0,34.94599 -15.66175,63.61553 -35.58835,66.39105 1.04742,0.14525 2.11198,0.21022 3.18128,0.21022 21.41212,0 38.76964,-29.81725 38.76964,-66.60029 0,-36.78283 -17.35752,-66.60019 -38.76964,-66.60019 z"
             id="path5264"
             style="fill:#ffffff;fill-opacity:1;stroke:none" />
          <path
             d="m -151.33415,231.28422 c -1.63607,0 -3.26432,0.13461 -4.86692,0.362 30.48467,4.24688 54.44523,48.06666 54.44523,101.52868 0,53.46245 -23.96029,97.32287 -54.44523,101.56899 1.60242,0.22228 3.23104,0.32169 4.86692,0.32169 32.75756,0 59.312138,-45.61621 59.312138,-101.88916 0,-56.27263 -26.554578,-101.88905 -59.312138,-101.88905 z"
             id="path5266"
             style="fill:#ffffff;fill-opacity:1;stroke:none" />
        </g>
        <g
           transform="translate(-768.14349,-154.95092)"
           id="g5353">
          <g
             transform="translate(0,-555.28718)"
             id="g5323">
            <rect
               width="241.66544"
               height="241.66544"
               ry="38.526375"
               x="59.396248"
               y="207.44138"
               id="rect5325"
               style="fill:#333333;fill-opacity:1;stroke:none;filter:url(#filter4976)" />
            <rect
               width="241.66544"
               height="241.66544"
               ry="38.526375"
               x="59.396248"
               y="203.44138"
               id="rect5327"
               style="fill:#aa0000;fill-opacity:1;stroke:none" />
          </g>
          <g
             transform="matrix(-0.75716338,0,0,-0.4461139,766.76099,-260.94469)"
             id="g5341"
             style="fill:#ffffff">
            <path
               d="m 948.74323,85.873854 -184.0412,0 -184.04121,-10e-7 92.0206,-159.384358 92.02061,-159.384365 92.0206,159.38436 z"
               transform="matrix(-0.65607986,0,0,-0.43402089,1279.9183,11.60519)"
               id="path5343"
               style="fill:#ffffff;fill-opacity:1;stroke:none" />
            <rect
               width="194.64958"
               height="237.78722"
               x="680.88794"
               y="-278.43555"
               id="rect5345"
               style="fill:#ffffff;fill-opacity:1;stroke:none" />
          </g>
          <rect
             width="30.398933"
             height="30.398933"
             x="125.64893"
             y="-200.74939"
             id="rect5349"
             style="fill:#aa0000;fill-opacity:1;stroke:none" />
          <rect
             width="35.803188"
             height="65.526588"
             x="189.14893"
             y="-199.39833"
             id="rect5351"
             style="fill:#aa0000;fill-opacity:1;stroke:none" />
        </g>
      </g>
      <g
         transform="translate(-11.934436,0)"
         id="g5099">
        <g
           transform="translate(-460.10097,-154.95092)"
           id="g5098">
          <rect
             width="241.66544"
             height="241.66544"
             ry="38.526375"
             x="59.396248"
             y="207.44138"
             id="rect5100"
             style="fill:#333333;fill-opacity:1;stroke:none;filter:url(#filter4976)" />
          <rect
             width="241.66544"
             height="241.66544"
             ry="38.526375"
             x="59.396248"
             y="203.44138"
             id="rect5102"
             style="fill:#aa0000;fill-opacity:1;stroke:none" />
        </g>
        <g
           transform="matrix(0.9103134,0,0,0.9103134,-981.9044,-100.80122)"
           id="g5113">
          <rect
             width="102.00531"
             height="165.04805"
             x="720.19592"
             y="232.95631"
             id="rect5104"
             style="fill:#ffffff;fill-opacity:1;stroke:none" />
          <rect
             width="47.164101"
             height="19.423513"
             x="747.61652"
             y="209.6395"
             id="rect5106"
             style="fill:#ffffff;fill-opacity:1;stroke:none" />
          <path
             d="m 732.76842,288.59675 0,95.2812 76.875,0 0,-57.93745 -76.875,-37.34375 z"
             id="rect5108"
             style="fill:#aa0000;fill-opacity:1;stroke:none" />
        </g>
        <g
           transform="translate(-453.34565,-435.97222)"
           id="g5299">
          <rect
             width="241.66544"
             height="241.66544"
             ry="38.526375"
             x="59.396248"
             y="207.44138"
             id="rect5301"
             style="fill:#333333;fill-opacity:1;stroke:none;filter:url(#filter4976)" />
          <rect
             width="241.66544"
             height="241.66544"
             ry="38.526375"
             x="59.396248"
             y="203.44138"
             id="rect5303"
             style="fill:#aa0000;fill-opacity:1;stroke:none" />
        </g>
        <g
           transform="matrix(0.48154905,0,0,0.4461139,-647.86426,-68.362223)"
           id="g5309"
           style="fill:#ffffff">
          <path
             d="m 948.74323,85.873854 -184.0412,0 -184.04121,-10e-7 92.0206,-159.384358 92.02061,-159.384365 92.0206,159.38436 z"
             transform="matrix(-0.77242611,0,0,-0.53377796,1368.8885,-22.227529)"
             id="path5305"
             style="fill:#ffffff;fill-opacity:1;stroke:none" />
          <rect
             width="173.23708"
             height="237.78722"
             x="691.59418"
             y="-278.43555"
             id="rect5307"
             style="fill:#ffffff;fill-opacity:1;stroke:none" />
        </g>
        <g
           transform="translate(-453.34565,-710.23812)"
           id="g5329">
          <rect
             width="241.66544"
             height="241.66544"
             ry="38.526375"
             x="59.396248"
             y="207.44138"
             id="rect5331"
             style="fill:#333333;fill-opacity:1;stroke:none;filter:url(#filter4976)" />
          <rect
             width="241.66544"
             height="241.66544"
             ry="38.526375"
             x="59.396248"
             y="203.44138"
             id="rect5333"
             style="fill:#aa0000;fill-opacity:1;stroke:none" />
        </g>
        <g
           transform="translate(-768.14349,-154.95092)"
           id="g5367">
          <rect
             width="32.481773"
             height="173.87303"
             x="180.71077"
             y="-601.99542"
             transform="matrix(0.70710678,0.70710678,-0.70710678,0.70710678,0,0)"
             id="rect5363"
             style="fill:#ffffff;fill-opacity:1;stroke:none" />
          <rect
             width="32.481773"
             height="173.87303"
             x="-531.2998"
             y="-283.88815"
             transform="matrix(-0.70710678,0.70710678,-0.70710678,-0.70710678,0,0)"
             id="rect5365"
             style="fill:#ffffff;fill-opacity:1;stroke:none" />
        </g>
      </g>
      <g
         transform="translate(4.5034975,0)"
         id="g5120">
        <g
           transform="translate(-168.94674,-154.95092)"
           id="g5140">
          <rect
             width="241.66544"
             height="241.66544"
             ry="38.526375"
             x="59.396248"
             y="207.44138"
             id="rect5142"
             style="fill:#333333;fill-opacity:1;stroke:none;filter:url(#filter4976)" />
          <rect
             width="241.66544"
             height="241.66544"
             ry="38.526375"
             x="59.396248"
             y="203.44138"
             id="rect5144"
             style="fill:#aa0000;fill-opacity:1;stroke:none" />
        </g>
        <g
           transform="translate(-768.14349,-154.95092)"
           id="g5241">
          <path
             d="m 776.45488,279.84996 c -6.15781,-5.86007 -15.62386,-5.84818 -21.2146,0.0266 l -42.43276,45.90025 53.73245,51.13437 42.43275,-45.90025 c 5.59075,-5.8748 5.13387,-15.32983 -1.02394,-21.1899 l -31.4939,-29.9711 z"
             id="rect5120"
             style="fill:#ffffff;fill-opacity:1;stroke:none" />
          <path
             d="m 658.74556,1065.4149 0,64.5166 c 0,3.3563 2.72532,6.0818 6.08171,6.0818 3.35639,0 6.05369,-2.7255 6.05369,-6.0818 l 0,-64.5166 -12.1354,0 z"
             transform="matrix(0.60704966,0.5776976,-0.5776976,0.60704966,935.92921,-691.92559)"
             id="rect5125"
             style="fill:#ffffff;fill-opacity:1;stroke:none" />
          <path
             d="m 704.79628,1065.4149 0,64.5166 c 0,3.3563 2.72532,6.0818 6.08171,6.0818 3.35639,0 6.05369,-2.7255 6.05369,-6.0818 l 0,-64.5166 -12.1354,0 z"
             transform="matrix(0.60704966,0.5776976,-0.5776976,0.60704966,935.92921,-691.92559)"
             id="path5132"
             style="fill:#ffffff;fill-opacity:1;stroke:none" />
          <path
             d="m 693.09566,1012.5058 a 5.7420206,5.7420206 0 1 1 -11.48404,0 5.7420206,5.7420206 0 1 1 11.48404,0 z"
             transform="matrix(0.82721162,0.78721429,-0.78721429,0.82721162,999.56224,-1060.9755)"
             id="path5138"
             style="fill:#aa0000;fill-opacity:1;stroke:none" />
          <path
             d="m 873.12814,259.55217 -10.85129,-2.82588 c 0,0 -2.14006,7.88956 -6.72611,14.44656 -2.293,3.27846 -5.11727,6.03082 -8.1889,7.5004 -3.07162,1.4696 -6.39973,1.96383 -11.30383,0.26393 -27.45163,-9.51527 -46.16302,10.746 -46.16302,10.746 l 8.39648,7.43719 c 0,0 12.60853,-15.02528 34.11471,-7.57075 7.33531,2.54259 14.32448,1.89285 19.82326,-0.73799 5.49879,-2.63085 9.50398,-6.90379 12.51843,-11.21374 6.02891,-8.61995 8.38027,-18.04572 8.38027,-18.04572 z"
             id="path4916-3"
             style="font-size:medium;font-style:normal;font-variant:normal;font-weight:normal;font-stretch:normal;text-indent:0;text-align:start;text-decoration:none;line-height:normal;letter-spacing:normal;word-spacing:normal;text-transform:none;direction:ltr;block-progression:tb;writing-mode:lr-tb;text-anchor:start;color:#000000;fill:#ffffff;fill-opacity:1;stroke:none;stroke-width:12;marker:none;visibility:visible;display:inline;overflow:visible;enable-background:accumulate;font-family:Bitstream Vera Sans;-inkscape-font-specification:Bitstream Vera Sans" />
        </g>
        <g
           transform="translate(-173.67547,-435.97222)"
           id="g5313">
          <rect
             width="241.66544"
             height="241.66544"
             ry="38.526375"
             x="59.396248"
             y="207.44138"
             id="rect5315"
             style="fill:#333333;fill-opacity:1;stroke:none;filter:url(#filter4976)" />
          <rect
             width="241.66544"
             height="241.66544"
             ry="38.526375"
             x="59.396248"
             y="203.44138"
             id="rect5317"
             style="fill:#aa0000;fill-opacity:1;stroke:none" />
        </g>
        <path
           d="m 160.77658,-268.97808 -75.843621,-47.51704 -82.3829515,46.42491 21.7544215,-86.81515 -69.610448,-64.00475 89.288595,-6.13767 39.361329,-85.98203 33.428965,83.02186 93.93709,10.86494 -68.62836,57.448 z"
           transform="matrix(0.66781441,0,0,0.66781441,-48.676065,153.41328)"
           id="path5321"
           style="fill:#ffffff;fill-opacity:1;stroke:none" />
        <g
           transform="translate(-173.67547,-710.23812)"
           id="g5335">
          <rect
             width="241.66544"
             height="241.66544"
             ry="38.526375"
             x="59.396248"
             y="207.44138"
             id="rect5337"
             style="fill:#333333;fill-opacity:1;stroke:none;filter:url(#filter4976)" />
          <rect
             width="241.66544"
             height="241.66544"
             ry="38.526375"
             x="59.396248"
             y="203.44138"
             id="rect5339"
             style="fill:#aa0000;fill-opacity:1;stroke:none" />
        </g>
        <path
           d="m -81.816025,-365.72314 53.49939,57.32077 123.23967,-147.12333 -126.28432,110.90948 -50.45474,-21.10692 z"
           id="path5694"
           style="fill:#ffffff;stroke:none" />
      </g>
      <g
         transform="translate(-5.469696e-5,0)"
         id="g5139">
        <g
           transform="translate(136.39365,-154.95092)"
           id="g5696">
          <rect
             width="241.66544"
             height="241.66544"
             ry="38.526375"
             x="59.396248"
             y="207.44138"
             id="rect5698"
             style="fill:#333333;fill-opacity:1;stroke:none;filter:url(#filter4976)" />
          <rect
             width="241.66544"
             height="241.66544"
             ry="38.526375"
             x="59.396248"
             y="203.44138"
             id="rect5700"
             style="fill:#aa0000;fill-opacity:1;stroke:none" />
        </g>
        <g
           transform="translate(131.66492,-435.97222)"
           id="g5702">
          <rect
             width="241.66544"
             height="241.66544"
             ry="38.526375"
             x="59.396248"
             y="207.44138"
             id="rect5704"
             style="fill:#333333;fill-opacity:1;stroke:none;filter:url(#filter4976)" />
          <rect
             width="241.66544"
             height="241.66544"
             ry="38.526375"
             x="59.396248"
             y="203.44138"
             id="rect5706"
             style="fill:#aa0000;fill-opacity:1;stroke:none" />
        </g>
        <g
           transform="translate(131.66492,-710.23812)"
           id="g5708">
          <rect
             width="241.66544"
             height="241.66544"
             ry="38.526375"
             x="59.396248"
             y="207.44138"
             id="rect5710"
             style="fill:#333333;fill-opacity:1;stroke:none;filter:url(#filter4976)" />
          <rect
             width="241.66544"
             height="241.66544"
             ry="38.526375"
             x="59.396248"
             y="203.44138"
             id="rect5712"
             style="fill:#aa0000;fill-opacity:1;stroke:none" />
        </g>
        <g
           id="text5714"
           style="font-size:250.47372437px;font-style:normal;font-weight:normal;line-height:125%;letter-spacing:0;word-spacing:0;fill:#ffffff;fill-opacity:1;stroke:none;font-family:Bitstream Vera Sans">
          <path
             d="m 340.87919,-465.43488 -13.94238,110.68297 -30.94232,0 -13.08627,-110.68297 z m -5.74818,122.30162 0,44.6401 -47.20842,0 0,-44.6401 z"
             id="path5263"
             style="fill:#ffffff;font-family:Franklin Gothic Heavy;-inkscape-font-specification:Franklin Gothic Heavy" />
        </g>
        <g
           id="text5718"
           style="font-size:192.76373291px;font-style:normal;font-weight:normal;line-height:125%;letter-spacing:0;word-spacing:0;fill:#ffffff;fill-opacity:1;stroke:none;font-family:Bitstream Vera Sans">
          <path
             d="m 349.47143,140.61539 -5.17676,42.26119 c -0.31385,2.88649 -0.47072,5.39643 -0.47062,7.52984 -10e-5,2.63548 1.2235,3.9532 3.67079,3.95316 4.51779,4e-5 8.87882,-2.85502 13.08309,-8.56519 4.20403,-5.71006 6.30611,-12.8634 6.30624,-21.46002 -1.3e-4,-12.54964 -4.58077,-22.9659 -13.74195,-31.24881 -9.1614,-8.2827 -20.39339,-12.42411 -33.696,-12.42423 -14.43225,1.2e-4 -26.60547,5.03569 -36.5197,15.10673 -9.91431,10.07125 -14.87144,22.63664 -14.87142,37.69623 -2e-5,13.86749 4.62768,25.94659 13.88313,36.23732 9.25537,10.29079 22.32276,15.43617 39.2022,15.43616 13.05162,1e-5 26.47981,-3.60803 40.28461,-10.82413 l 6.21211,15.43615 c -15.12253,7.78083 -30.62142,11.67124 -46.49672,11.67125 -22.02482,-1e-5 -39.53167,-6.69842 -52.52059,-20.09525 -12.98898,-13.3968 -19.48345,-29.38199 -19.48344,-47.95562 -1e-5,-19.38924 6.82389,-35.59405 20.47173,-48.61449 13.64778,-13.02021 30.16634,-19.53037 49.55572,-19.5305 18.44799,1.3e-4 33.88414,5.72593 46.30847,17.17743 12.42409,11.45172 18.6362,25.30347 18.63634,41.55527 -1.4e-4,12.80077 -3.79643,23.73471 -11.38887,32.80183 -7.59271,9.06721 -16.59713,13.60079 -27.01328,13.60076 -7.09069,3e-5 -12.45569,-2.72953 -16.09502,-8.18869 -4.83172,5.71015 -10.63597,8.56521 -17.41274,8.56519 -7.59264,2e-5 -14.08712,-3.21584 -19.48344,-9.6476 -5.39643,-6.43169 -8.09462,-14.88706 -8.09457,-25.36613 -5e-5,-10.72994 3.04326,-19.49905 9.12992,-26.30735 6.08656,-6.80813 13.39676,-10.21224 21.93064,-10.21234 5.3963,1e-4 10.35344,1.85118 14.87142,5.55325 l 1.12947,-4.14141 z m -36.1432,52.04998 c 4.32957,4e-5 8.06311,-2.11772 11.20062,-6.3533 3.13735,-4.23548 4.70606,-9.0828 4.70615,-14.54199 -9e-5,-4.39233 -1.27075,-7.90625 -3.81198,-10.54177 -2.5414,-2.63536 -5.44352,-3.95308 -8.70637,-3.95316 -3.76499,8e-5 -6.9181,1.75704 -9.45935,5.27088 -2.54138,3.514 -3.81204,8.12601 -3.81198,13.83607 -6e-5,4.64345 0.90979,8.51818 2.72956,11.62418 1.81965,3.1061 4.20409,4.65913 7.15335,4.65909 z"
             id="path5270"
             style="fill:#ffffff;font-family:Franklin Gothic Heavy;-inkscape-font-specification:Franklin Gothic Heavy" />
        </g>
        <g
           id="text5722"
           style="font-size:231.98461914px;font-style:normal;font-weight:normal;line-height:125%;letter-spacing:0;word-spacing:0;fill:#ffffff;fill-opacity:1;stroke:none;font-family:Bitstream Vera Sans">
          <path
             d="m 294.27976,-128.54048 -41.57147,-4.53095 c 6.34332,-35.41678 26.92137,-53.12523 61.73419,-53.12538 17.51959,1.5e-4 31.33897,4.62549 41.45819,13.87603 10.119,9.25082 15.17856,20.71034 15.17868,34.37858 -1.2e-4,6.04137 -1.0007,11.55402 -3.00175,16.53796 -2.00129,4.98414 -4.56882,9.08087 -7.70262,12.29021 -3.13401,3.20949 -8.21245,7.38174 -15.23532,12.516743 -5.36171,3.926887 -8.7788,6.777606 -10.25127,8.552168 -1.47264,1.774679 -2.47322,4.361093 -3.00175,7.759251 l -37.60688,0 c -5e-5,-9.137355 0.81175,-15.726104 2.43538,-19.766272 1.62354,-4.04002 4.96511,-8.32554 10.02473,-12.85657 7.62703,-6.87184 12.38452,-11.98804 14.27249,-15.34859 1.88782,-3.36035 2.83177,-7.26829 2.83184,-11.72383 -7e-5,-4.68186 -1.24608,-8.28774 -3.73803,-10.81764 -2.49209,-2.52966 -5.58824,-3.79455 -9.28845,-3.79467 -10.94984,1.2e-4 -16.46249,8.68444 -16.53796,26.05296 z m 41.91128,57.996154 0,41.344915 -43.38384,0 0,-41.344915 z"
             id="path5267"
             style="fill:#ffffff;font-family:Franklin Gothic Heavy;-inkscape-font-specification:Franklin Gothic Heavy" />
        </g>
      </g>
    </g>
  </g>
</svg>
